<svg width="529" height="529" viewBox="0 0 529 529" fill="none" xmlns="http://www.w3.org/2000/svg">
<g clip-path="url(#clip0_1098_988)">
<path d="M52.8992 136.992C188.032 243.149 214.624 357.881 210.872 409.943C210.606 413.639 214.135 416.576 217.667 415.452L314.884 384.514C315.932 384.181 317.061 384.202 318.096 384.575L409.515 417.536C410.165 417.771 410.892 417.866 411.581 417.816C459.369 414.363 437.205 398.204 420 390.5C403.44 385.153 377.508 375.86 354.675 365.698C333.386 356.223 314.79 345.992 309 337.5C299.275 323.237 305.312 299.034 311.943 282.829C313.559 278.88 310.008 274.308 305.755 274.651C211 282.284 214.468 89.0149 54.737 128.267C50.7512 129.246 49.6716 134.457 52.8992 136.992Z" fill="white" stroke="#131313" stroke-width="10"/>
<path d="M382.831 400.003C182.573 295.707 468.336 211.883 342.7 57.1081C340.114 53.9215 334.896 55.1167 333.982 59.1179C293.61 235.78 193.069 307.37 147.07 321.128C-124.087 374.536 637.293 532.531 382.831 400.003Z" fill="black" style="mix-blend-mode:hard-light"/>
<path d="M382.831 400.003C182.573 295.707 468.336 211.883 342.7 57.1081C340.114 53.9215 334.896 55.1167 333.982 59.1179C293.61 235.78 193.069 307.37 147.07 321.128C-124.087 374.536 637.293 532.531 382.831 400.003Z" stroke="black"/>
</g>
<defs>
<clipPath id="clip0_1098_988">
<rect width="529" height="529" fill="white"/>
</clipPath>
</defs>
</svg>
