<svg width="35" height="35" viewBox="0 0 35 35" fill="none" xmlns="http://www.w3.org/2000/svg">
<path fill-rule="evenodd" clip-rule="evenodd" d="M8.91587 32.746C6.8364 31.5748 4.99432 29.9809 3.53033 28.0427L4.30925 23.988C6.11347 27.6663 9.34489 30.3453 13.1108 31.5294L13.0914 31.5521L8.91587 32.746ZM26.3189 2.38854C28.3057 3.54699 30.0672 5.09513 31.4776 6.96302L30.6999 11.0111L30.6967 11.0149C28.9392 7.43265 25.8282 4.79826 22.188 3.56968L26.3187 2.38865L26.3189 2.38854ZM0.15007 19.7564L0.147326 19.7572C-0.958869 11.31 4.25644 3.08833 12.6925 0.676293C14.2229 0.238711 15.7645 0.0194261 17.2838 0L14.604 3.08996C14.2231 3.16701 13.8422 3.25965 13.4621 3.3683C7.28892 5.13344 3.1688 10.6021 2.82397 16.6732L0.15007 19.7564ZM34.8609 15.2601C35.9598 23.7025 30.7455 31.9167 22.3141 34.3275C20.8503 34.7458 19.3765 34.9648 17.9216 35L20.6067 31.8711C20.9195 31.803 21.2322 31.7248 21.5444 31.6354C27.6991 29.8755 31.8132 24.4343 32.1794 18.3849L34.8609 15.2601Z" fill="#000000"/>
<path fill-rule="evenodd" clip-rule="evenodd" d="M6.83937 23.257C6.4336 22.5004 6.10194 21.6895 5.85644 20.8308C5.6109 19.9721 5.46372 19.1083 5.40819 18.2517C5.04436 12.6349 8.62163 7.32172 14.2519 5.71185C15.0348 5.48797 15.8218 5.34594 16.6039 5.28053C18.3857 5.13148 20.1417 5.38062 21.7637 5.96779C24.5496 6.97631 26.9404 8.98215 28.3879 11.6812C28.7937 12.4377 29.1253 13.2486 29.3709 14.1074C29.6163 14.9661 29.7636 15.8298 29.8192 16.6864C30.183 22.3032 26.6056 27.6164 20.9753 29.2262C20.1936 29.4499 19.4077 29.5919 18.6267 29.6574C16.8448 29.8069 15.0888 29.5583 13.4668 28.9715C10.6795 27.9631 8.28754 25.957 6.83937 23.257ZM8.56708 17.3485C8.55568 18.2093 8.66784 19.0859 8.91655 19.9557C9.16523 20.8255 9.53347 21.6291 9.99816 22.3537C10.9552 23.8458 12.3218 25.0031 13.8979 25.7146C15.4749 26.4264 17.2618 26.6918 19.058 26.3993C19.4055 26.3427 19.7535 26.2653 20.1003 26.1661C24.0305 25.0423 26.6083 21.479 26.6601 17.5896C26.6715 16.7288 26.5593 15.8521 26.3106 14.9823C26.0619 14.1125 25.6937 13.3089 25.229 12.5843C24.2725 11.0931 22.9071 9.93644 21.3324 9.22493C19.7556 8.51252 17.9688 8.24648 16.1726 8.5382C15.8239 8.59482 15.4749 8.67243 15.127 8.77196C11.1968 9.89572 8.6189 13.459 8.56708 17.3485Z" fill="#000000"/>
</svg>
