<svg width="59" height="16" viewBox="0 0 59 16" fill="none" xmlns="http://www.w3.org/2000/svg">
<path d="M50.9496 2.82955C51.7699 2.82955 52.3934 2.25377 52.3934 1.41478C52.3934 0.559328 51.7699 0 50.9496 0C50.1293 0 49.5059 0.559328 49.5059 1.41478C49.5059 2.25377 50.1293 2.82955 50.9496 2.82955Z" fill="black"/>
<path d="M49.8184 12.4698H52.1152V4.42529H49.8184V12.4698Z" fill="black"/>
<path d="M12.0117 12.4699H9.71484V2.28219L12.0117 0.954224V12.4699Z" fill="black"/>
<path fill-rule="evenodd" clip-rule="evenodd" d="M17.6023 12.7166C20.1945 12.7166 21.9828 10.8411 21.9828 8.42291C21.9828 6.02104 20.1945 4.16211 17.6023 4.16211C15.0102 4.16211 13.2383 6.02104 13.2383 8.42291C13.2383 10.8411 15.0102 12.7166 17.6023 12.7166ZM17.6023 10.545C16.5031 10.545 15.6171 9.75542 15.6171 8.42291C15.6171 7.12329 16.5031 6.31715 17.6023 6.31715C18.7179 6.31715 19.6039 7.12329 19.6039 8.42291C19.6039 9.75542 18.7179 10.545 17.6023 10.545Z" fill="black"/>
<path d="M29.6227 7.0904C28.8188 6.56394 28.1297 6.3336 27.2765 6.3336C26.1445 6.3336 25.1601 7.05744 25.1601 8.42291C25.1601 9.83764 26.1445 10.5286 27.2765 10.5286C28.1297 10.5286 28.8188 10.3148 29.6227 9.77187V12.1572C29.0321 12.4369 28.2281 12.7166 27.1617 12.7166C24.6351 12.7166 22.7812 10.9728 22.7812 8.42291C22.7812 5.88943 24.6351 4.16211 27.1617 4.16211C28.2281 4.16211 29.0321 4.44177 29.6227 4.72144V7.0904Z" fill="black"/>
<path d="M39.4038 12.4699L36.2046 7.48521L39.2234 4.42537H36.2702L33.3827 7.33716V0.954224L31.0859 2.28219V12.4699H33.3827V10.3313L34.5476 9.16324L36.664 12.4699H39.4038Z" fill="black"/>
<path fill-rule="evenodd" clip-rule="evenodd" d="M42.5586 14.6738L40.2617 16.0001V4.40887H42.5586V5.00109C43.0836 4.54048 43.8547 4.16211 44.8062 4.16211C47.1195 4.16211 48.5797 6.08689 48.5797 8.43935C48.5797 10.7589 47.1195 12.7166 44.8062 12.7166C43.8547 12.7166 43.1328 12.3876 42.5586 11.8611V14.6738ZM42.5586 9.68958C42.9852 10.1996 43.5922 10.545 44.2648 10.545C45.3805 10.545 46.2007 9.73898 46.2007 8.43935C46.1844 7.13973 45.3805 6.31715 44.2648 6.31715C43.5922 6.31715 42.9852 6.67911 42.5586 7.18905V9.68958Z" fill="black"/>
<path d="M58.9468 12.5357C58.7336 12.6014 58.1429 12.7166 57.5688 12.7166C56.1086 12.7166 54.8617 11.9763 54.8617 10.1009V6.33364H53.5V4.42537H54.9437V2.28219L57.1586 0.954224V4.42537H58.9468V6.33364H57.1586V9.55809C57.1586 10.2819 57.5195 10.6438 58.2906 10.6438C58.5367 10.6438 58.7664 10.5945 58.9468 10.5451V12.5357Z" fill="black"/>
<path fill-rule="evenodd" clip-rule="evenodd" d="M0 12.4699H4.77422C7.1039 12.4699 8.43283 11.1867 8.43283 9.13036C8.43283 7.91294 7.79298 6.89299 6.64453 6.4817C7.41562 6.10338 8.02263 5.26436 8.02263 4.047C8.02263 2.31965 6.71015 0.954224 4.54453 0.954224H2.37932V3.05994H4.05234C4.92187 3.05994 5.49609 3.52056 5.49609 4.31021C5.49609 5.13275 4.92187 5.62632 4.05234 5.62632H2.37932V3.05994H0V12.4699ZM2.37891 7.53462V10.3148H4.29843C5.21718 10.3148 5.87343 9.8048 5.87343 8.91645C5.87343 8.061 5.2828 7.53462 4.29843 7.53462H2.37891Z" fill="black"/>
</svg>
