<svg viewBox="0 0 98 22" fill="none" xmlns="http://www.w3.org/2000/svg">
  <!-- Logo icon -->
  <path d="M2.54583 0.0415494C2.26622 -0.112195 1.95889 0.192955 2.13196 0.450169L7.32571 8.21395C7.4766 8.43667 7.22532 8.70733 6.97096 8.59626L0.326185 5.66694C0.0995397 5.56873 -0.107397 5.83413 0.060739 6.00892L4.32389 10.8141C4.41874 10.9229 4.41874 11.0795 4.32389 11.1854L0.060739 15.9912C-0.104318 16.1665 0.100156 16.4314 0.326185 16.3331L6.97404 13.4038C7.2284 13.2922 7.47722 13.5628 7.32879 13.7861L2.13504 21.5499C1.96197 21.8071 2.27176 22.1123 2.54891 21.9585L21.7904 11.3449C22.07 11.1912 22.07 10.8066 21.7904 10.6551L2.54583 0.0415494Z" fill="currentColor"/>
  <!-- Text "Neutron" -->
  <g transform="translate(28, 4)">
    <path d="M8.69161 0V8.74024L2.72992 0H0V13.8735H2.95092V5.13328L8.91261 13.8735H11.6627V0H8.69196H8.69161Z" fill="currentColor"/>
    <path d="M22.1841 5.35608C21.7424 4.58306 21.1336 3.9819 20.3573 3.55335C19.5809 3.1248 18.6778 2.91016 17.6475 2.91016C16.6173 2.91016 15.6603 3.13857 14.8574 3.59539C14.0545 4.05221 13.4354 4.69875 13.0005 5.53502C12.5656 6.37128 12.3481 7.35188 12.3481 8.47608C12.3481 9.60028 12.5688 10.5738 13.0104 11.3963C13.4521 12.2184 14.0843 12.8583 14.9074 13.3151C15.7304 13.7719 16.7108 14.0003 17.848 14.0003C18.7579 14.0003 19.5607 13.8281 20.2567 13.4836C20.9526 13.1392 21.508 12.679 21.9227 12.1027C22.3374 11.5265 22.5984 10.8941 22.7054 10.2052H19.9153C19.7949 10.6969 19.5437 11.0768 19.1627 11.3439C18.7812 11.611 18.3027 11.7445 17.7276 11.7445C17.2594 11.7445 16.8478 11.6496 16.493 11.4599C16.1384 11.2702 15.8572 10.989 15.65 10.6166C15.4425 10.2442 15.3256 9.79781 15.2987 9.27775V9.13006H22.7861C22.8131 8.96155 22.8329 8.78931 22.8464 8.61335C22.8598 8.43776 22.8665 8.27259 22.8665 8.11784C22.8531 7.04944 22.6257 6.12874 22.1841 5.35571V5.35608ZM15.3593 7.19043C15.4127 6.75482 15.5466 6.38579 15.7609 6.08335C15.9752 5.78128 16.2461 5.5458 16.5737 5.37692C16.9017 5.2084 17.2661 5.12395 17.6677 5.12395C18.3102 5.12395 18.8386 5.29954 19.2537 5.65108C19.6684 6.00263 19.9227 6.51562 20.0166 7.19006H15.3596L15.3593 7.19043Z" fill="currentColor"/>
    <path d="M30.6014 3.03711V8.45572C30.6014 9.1164 30.5111 9.67515 30.3305 10.132C30.1498 10.5888 29.8955 10.9366 29.5676 11.1758C29.2396 11.4146 28.8415 11.5344 28.3733 11.5344C27.6774 11.5344 27.1688 11.2956 26.8479 10.8176C26.5267 10.3395 26.3663 9.61563 26.3663 8.64581V3.03711H23.5361V9.04609C23.5361 10.0159 23.6498 10.8205 23.8776 11.4604C24.1049 12.0999 24.4095 12.6058 24.7909 12.9785C25.1724 13.3509 25.6073 13.6147 26.0957 13.7691C26.5841 13.9238 27.0959 14.0008 27.6314 14.0008C28.5681 14.0008 29.3041 13.7899 29.8392 13.3684C30.1445 13.1285 30.4204 12.858 30.6691 12.5586L30.9233 13.8747H33.4326V3.03711H30.6021H30.6014Z" fill="currentColor"/>
    <path d="M37.9519 11.3644C37.5906 11.3644 37.3328 11.2799 37.1791 11.1114C37.025 10.9429 36.9482 10.6687 36.9482 10.2889V6.22437C35.3849 6.22437 34.1177 7.5554 34.1177 9.19743V10.774C34.1177 11.8 34.3652 12.573 34.8604 13.0931C35.3555 13.6131 36.0914 13.8731 37.0682 13.8731H39.4167V11.364H37.9515L37.9519 11.3644ZM39.4171 5.54509V3.03593H37.5956C37.2379 3.03593 36.9482 2.73125 36.9482 2.3559V0H34.1177V2.58245C34.1177 4.2189 35.3806 5.54509 36.9383 5.54509H39.4167H39.4171Z" fill="currentColor"/>
    <path d="M45.9409 3.03553C45.2719 3.03553 44.7233 3.14081 44.2947 3.35173C43.8665 3.56266 43.5219 3.85059 43.2609 4.21627C43.1582 4.36023 43.0612 4.51238 42.9709 4.67383L42.7091 3.03553H40.1396V13.8728H42.9701V8.55942C42.9701 8.01108 43.047 7.52264 43.2011 7.09409C43.3548 6.66554 43.6059 6.33148 43.9537 6.09266C44.3015 5.85383 44.7498 5.73405 45.2984 5.73405H46.4226V3.03516H45.9409V3.03553Z" fill="currentColor"/>
    <path d="M56.6166 5.53502C56.1682 4.69875 55.5361 4.05221 54.7197 3.59539C53.9033 3.13857 52.9467 2.91016 51.8492 2.91016C50.7516 2.91016 49.795 3.13857 48.9787 3.59539C48.1623 4.05221 47.5301 4.69875 47.0817 5.53502C46.6334 6.37128 46.4092 7.34482 46.4092 8.45525C46.4092 9.56568 46.6334 10.5392 47.0817 11.3755C47.5301 12.2117 48.1623 12.8583 48.9787 13.3151C49.795 13.7719 50.7516 14.0003 51.8492 14.0003C52.9467 14.0003 53.9033 13.7719 54.7197 13.3151C55.5361 12.8583 56.1682 12.2117 56.6166 11.3755C57.065 10.5392 57.2892 9.56568 57.2892 8.45525C57.2892 7.34482 57.065 6.37128 56.6166 5.53502ZM54.1077 10.0679C53.9002 10.5388 53.6058 10.9079 53.2244 11.1746C52.843 11.4417 52.3847 11.5752 51.8495 11.5752C51.3144 11.5752 50.8759 11.4417 50.4945 11.1746C50.1131 10.9075 49.8187 10.5385 49.6112 10.0679C49.4037 9.59693 49.3002 9.05938 49.3002 8.45488C49.3002 7.85037 49.404 7.29534 49.6112 6.83145C49.8187 6.36756 50.1131 6.00225 50.4945 5.73515C50.8759 5.46806 51.3275 5.33451 51.8495 5.33451C52.3716 5.33451 52.8433 5.46806 53.2244 5.73515C53.6058 6.00225 53.9002 6.36756 54.1077 6.83145C54.3152 7.29534 54.4187 7.83661 54.4187 8.45488C54.4187 9.07315 54.3149 9.59693 54.1077 10.0679Z" fill="currentColor"/>
    <path d="M67.4279 4.91303C67.0465 4.19617 66.5446 3.68318 65.9224 3.37405C65.3001 3.06491 64.6134 2.91016 63.865 2.91016C62.8741 2.91016 62.1045 3.12443 61.5566 3.55335C61.2286 3.80892 60.935 4.09611 60.675 4.41417L60.4123 3.03664H57.9434V13.8739H60.7735V8.32877C60.7735 7.71012 60.8638 7.1763 61.0444 6.72655C61.2251 6.27679 61.4886 5.93604 61.8374 5.70391C62.1845 5.47215 62.6003 5.35608 63.082 5.35608C63.7903 5.35608 64.3166 5.59491 64.6576 6.07293C64.9991 6.55096 65.1694 7.24661 65.1694 8.16025V13.8742H67.9996V7.86525C67.9996 6.6142 67.809 5.63025 67.4276 4.9134L67.4279 4.91303Z" fill="currentColor"/>
  </g>
</svg>
