<svg width="65" height="16" viewBox="0 0 65 16" fill="none" xmlns="http://www.w3.org/2000/svg">
<g clip-path="url(#clip0_39_296602)">
<path d="M14.29 0C15.1668 0 15.8777 0.716133 15.8779 1.59961V14.4004C15.8777 15.2839 15.1668 16 14.29 16H1.58789C0.71111 16 0.000209666 15.2839 0 14.4004V1.59961C0.000209474 0.716133 0.71111 0 1.58789 0H14.29ZM8.23242 2.3916C7.91784 2.39175 7.66504 2.6485 7.66504 2.96289V4.44434C7.66503 4.45706 7.65462 4.46582 7.64453 4.46582H6.1748C5.86006 4.46582 5.60645 4.72261 5.60645 5.03711V6.57812C5.60647 6.60844 5.61067 6.63793 5.61523 6.66699C5.58659 6.66252 5.55727 6.6582 5.52734 6.6582H3.99902C3.68429 6.6582 3.43067 6.91499 3.43066 7.22949V13.0371C3.43077 13.3515 3.68434 13.6084 3.99902 13.6084H5.52734C5.842 13.6084 6.0956 13.3515 6.0957 13.0371V11.4961C6.09574 11.4836 6.1053 11.4749 6.11523 11.4746H9.76172C9.77174 11.4746 9.78122 11.4834 9.78125 11.4961V13.0371C9.78136 13.3514 10.035 13.6083 10.3496 13.6084H11.8789C12.1935 13.6083 12.4462 13.3514 12.4463 13.0371V2.96289C12.4463 2.64846 12.1935 2.39168 11.8789 2.3916H8.23242ZM9.76172 5.0752C9.77163 5.07521 9.78101 5.08318 9.78125 5.0957V8.77051C9.78112 8.78314 9.77169 8.79198 9.76172 8.79199H6.11523C6.10535 8.79175 6.09583 8.78291 6.0957 8.77051V7.22949C6.0957 7.1988 6.09059 7.16906 6.08594 7.13965C6.11489 7.14422 6.14454 7.14844 6.1748 7.14844H7.70312C8.01767 7.14844 8.27123 6.89238 8.27148 6.57812V5.0957C8.27171 5.08337 8.28126 5.07546 8.29102 5.0752H9.76172Z" fill="#111C26"/>
<path opacity="0.2" d="M1.78516 0V16" stroke="white" stroke-width="0.141667"/>
<path opacity="0.2" d="M14.2227 0V16" stroke="white" stroke-width="0.141667"/>
<path opacity="0.2" d="M0 14.2002H15.8779" stroke="white" stroke-width="0.141667"/>
<path opacity="0.2" d="M0 1.6665H15.8779" stroke="white" stroke-width="0.141667"/>
<path d="M19.834 12.5L23.0459 3.49536H25.3205L28.5449 12.5H26.2204L25.6954 10.8754H22.571L22.0586 12.5H19.834ZM23.0834 9.27596H25.183L24.5082 7.09721C24.3582 6.63126 24.1582 5.82521 24.1582 5.82521H24.1332C24.1332 5.82521 23.9207 6.63126 23.7708 7.09721L23.0834 9.27596ZM29.0482 12.5V6.05191H30.9978V7.05946H31.0353C31.4853 6.29121 32.0102 5.95116 32.785 5.95116C32.9725 5.95116 33.0975 5.96376 33.1849 6.00156V7.76471H33.135C31.8852 7.58836 31.0853 8.20546 31.0853 9.60341V12.5H29.0482ZM36.4916 12.5756C35.3043 12.5756 34.4544 12.1852 34.4544 10.7998V7.33651H33.6046V6.05191H34.4544V4.01171H36.4416V6.05191H37.6039V7.33651H36.4416V10.3591C36.4416 10.8628 36.7165 10.9888 37.154 10.9888C37.3289 10.9888 37.5289 10.9762 37.6039 10.9762V12.4748C37.4289 12.5252 37.0415 12.5756 36.4916 12.5756ZM41.3995 12.6889C39.2873 12.6889 37.9876 11.2154 37.9876 9.26336C37.9876 7.33651 39.3249 5.86301 41.2745 5.86301C42.1868 5.86301 42.9117 6.16526 43.4616 6.66901C44.224 7.37431 44.5989 8.49516 44.5864 9.80491H39.9873C40.1122 10.6739 40.5871 11.2154 41.4245 11.2154C41.9619 11.2154 42.3118 10.9762 42.4868 10.5732H44.4739C44.3365 11.1525 43.9615 11.7066 43.3991 12.097C42.8617 12.4748 42.2118 12.6889 41.3995 12.6889ZM39.9998 8.58331H42.5243C42.4493 7.81506 41.9744 7.32391 41.312 7.32391C40.5371 7.32391 40.1372 7.81506 39.9998 8.58331ZM45.2684 12.5V6.05191H47.2181V6.97126H47.2556C47.6555 6.30381 48.2679 5.86301 49.1927 5.86301C50.0303 5.86301 50.6674 6.30381 50.9924 6.99646H51.0172C51.5174 6.21566 52.2046 5.86301 53.0297 5.86301C54.4791 5.86301 55.204 6.85796 55.204 8.30626V12.5H53.1672V8.67146C53.1672 7.97881 52.8794 7.57581 52.2671 7.57581C51.6171 7.57581 51.2549 8.11731 51.2549 8.88556V12.5H49.2178V8.67146C49.2178 7.97881 48.9303 7.57581 48.3179 7.57581C47.6805 7.57581 47.3056 8.11731 47.3056 8.88556V12.5H45.2684ZM56.1309 12.5V6.05191H58.1677V12.5H56.1309ZM56.1309 5.15776V3.49536H58.1677V5.15776H56.1309ZM61.8697 12.7015C59.9952 12.7015 58.8202 11.8325 58.7582 10.4094H60.6824C60.7578 11.0517 61.1825 11.3666 61.8573 11.3666C62.4696 11.3666 62.8571 11.1399 62.8571 10.7243C62.8571 10.145 62.0821 10.082 61.2326 9.93086C60.1202 9.74196 58.9328 9.43971 58.9328 7.92841C58.9328 6.56826 60.1827 5.86301 61.6951 5.86301C63.5071 5.86301 64.4821 6.65641 64.5819 7.92841H62.7073C62.6324 7.34911 62.2448 7.17276 61.6822 7.17276C61.1825 7.17276 60.795 7.36171 60.795 7.76471C60.795 8.21806 61.5199 8.28106 62.3322 8.43216C63.457 8.62106 64.7818 8.91076 64.7818 10.5606C64.7818 11.9711 63.5444 12.7015 61.8697 12.7015Z" fill="#111C26"/>
</g>
<defs>
<clipPath id="clip0_39_296602">
<rect width="65" height="16" fill="white"/>
</clipPath>
</defs>
</svg>
