<svg width="65" height="17" viewBox="0 0 65 17" fill="none" xmlns="http://www.w3.org/2000/svg">
<path d="M17.0809 8.50562C17.0776 11.8292 15.1077 14.9814 11.8458 16.3326C8.58386 17.6838 4.96179 16.8477 2.60938 14.4999L17.0809 8.50562Z" fill="#111C26"/>
<path d="M5.35647 0.668499C9.68194 -1.12316 14.6409 0.930899 16.4326 5.25636C16.7041 5.91188 16.8871 6.58198 16.9874 7.25337L1.78829 13.5491C1.38452 13.0034 1.04013 12.4001 0.768601 11.7446C-1.02306 7.41911 1.03099 2.46017 5.35647 0.668499Z" fill="#111C26"/>
<path d="M25 15.012V3H29.368C31.1264 3 32.4536 3.5432 33.3496 4.6296C34.2456 5.716 34.6936 7.1888 34.6936 9.048C34.6936 10.896 34.2288 12.352 33.2992 13.416C32.3696 14.48 31.02 15.012 29.2504 15.012H25ZM26.512 13.6848H29.2C31.832 13.6848 33.148 12.1392 33.148 9.048C33.148 5.8896 31.8712 4.3104 29.3176 4.3104H26.512V13.6848Z" fill="#111C26"/>
<path d="M44.1708 15.012H42.81V13.8192H42.7764C42.0932 14.7488 41.2196 15.2136 40.1556 15.2136C39.2596 15.2136 38.5484 14.9616 38.022 14.4576C37.4956 13.9424 37.2324 13.2368 37.2324 12.3408V6.3264H38.5932V12.3072C38.5932 12.8672 38.7612 13.304 39.0972 13.6176C39.4444 13.9312 39.926 14.088 40.542 14.088C41.2252 14.088 41.774 13.8584 42.1884 13.3992C42.6028 12.94 42.81 12.3632 42.81 11.6688V6.3264H44.1708V15.012Z" fill="#111C26"/>
<path d="M48.3717 6.3264V7.4688H48.4053C49.0773 6.5728 49.9957 6.1248 51.1605 6.1248C52.0789 6.1248 52.7957 6.3656 53.3109 6.8472C53.8261 7.3288 54.0837 8.0176 54.0837 8.9136V15.012H52.7229V9.0312C52.7229 8.4712 52.5493 8.04 52.2021 7.7376C51.8549 7.424 51.3733 7.2672 50.7573 7.2672C50.0629 7.2672 49.4917 7.4912 49.0437 7.9392C48.5957 8.3872 48.3717 8.964 48.3717 9.6696V15.012H47.0109V6.3264H48.3717Z" fill="#111C26"/>
<path d="M60.5995 15.2472C59.3115 15.2472 58.2867 14.816 57.5251 13.9536C56.7747 13.08 56.3995 11.988 56.3995 10.6776C56.3995 9.3896 56.7803 8.3088 57.5419 7.4352C58.3147 6.5504 59.3059 6.108 60.5155 6.108C61.7923 6.108 62.7779 6.556 63.4723 7.452C64.1667 8.3368 64.5139 9.5184 64.5139 10.9968H57.7939C57.8499 11.9152 58.1187 12.6656 58.6003 13.248C59.0931 13.8192 59.7595 14.1048 60.5995 14.1048C61.8987 14.1048 62.6995 13.5112 63.0019 12.324H64.3291C64.1275 13.2536 63.7019 13.976 63.0523 14.4912C62.4027 14.9952 61.5851 15.2472 60.5995 15.2472ZM62.3299 7.9224C61.8931 7.4296 61.2883 7.1832 60.5155 7.1832C59.7427 7.1832 59.1267 7.4408 58.6675 7.956C58.2195 8.4712 57.9395 9.1432 57.8275 9.972H63.0523C63.0075 9.0984 62.7667 8.4152 62.3299 7.9224Z" fill="#111C26"/>
</svg>
