<svg width="47" height="15" viewBox="0 0 47 15" fill="none" xmlns="http://www.w3.org/2000/svg">
<g clip-path="url(#clip0_23_265258)">
<path d="M43.5866 0L33.4512 14.6018H36.563L46.7508 0H43.5866Z" fill="#111C26"/>
<path d="M36.8875 0L39.8696 4.30268L38.3138 6.64958L33.7109 0H36.8875Z" fill="#111C26"/>
<path d="M43.8881 14.603L40.582 9.84398L42.1378 7.56226L46.9999 14.603H43.8881Z" fill="#111C26"/>
<path fill-rule="evenodd" clip-rule="evenodd" d="M29.8207 0H32.5434V14.6018H29.8207V14.0564C29.0341 14.488 28.1315 14.7334 27.1714 14.7334C24.1233 14.7334 21.6523 12.2598 21.6523 9.20836C21.6523 6.15699 24.1233 3.68335 27.1714 3.68335C28.1315 3.68335 29.0341 3.92873 29.8207 4.36027V0ZM27.1423 12.3085C28.8686 12.3085 30.2682 10.9075 30.2682 9.17926C30.2682 7.45104 28.8686 6.05004 27.1423 6.05004C25.416 6.05004 24.0165 7.45104 24.0165 9.17926C24.0165 10.9075 25.416 12.3085 27.1423 12.3085Z" fill="#111C26"/>
<path d="M21.9235 0L11.7988 14.6018H14.9729L25.0878 0H21.9235Z" fill="#111C26"/>
<path d="M14.9742 0L18.1507 4.43307L16.4004 6.91036L11.668 0H14.9742Z" fill="#111C26"/>
<path fill-rule="evenodd" clip-rule="evenodd" d="M8.16829 0H10.891V14.6018H8.16829V14.0564C7.3819 14.488 6.4791 14.7334 5.51907 14.7334C2.47097 14.7334 0 12.2598 0 9.20836C0 6.15699 2.47097 3.68335 5.51907 3.68335C6.4791 3.68335 7.3819 3.92873 8.16829 4.36027V0ZM5.48999 12.3085C7.21636 12.3085 8.61586 10.9075 8.61586 9.17926C8.61586 7.45104 7.21636 6.05004 5.48999 6.05004C3.76363 6.05004 2.36415 7.45104 2.36415 9.17926C2.36415 10.9075 3.76363 12.3085 5.48999 12.3085Z" fill="#111C26"/>
</g>
<defs>
<clipPath id="clip0_23_265258">
<rect width="47" height="15" fill="white"/>
</clipPath>
</defs>
</svg>
