<svg xmlns="http://www.w3.org/2000/svg" fill="none" viewBox="0 0 3605 1321" height="1321" width="3605">
<g clip-path="url(#clip0_1827_14605)">
<path fill="black" d="M144.9 412.003H0V438.269H56.5881V591.977H0V618.531H144.9V591.977H88.3124V438.269H144.9V412.003V412.003Z"></path>
<path fill="black" d="M233.088 618.531V470.437C233.088 461.299 233.088 452.161 232.506 442.695L299.572 618.531H345.391V412.003H315.746V555.999C315.746 565.424 315.746 575.463 316.037 584.929L250.468 412.003H203.484V618.531H233.088Z"></path>
<path fill="black" d="M492.213 618.531V438.269H559.279V412.003H393.132V438.269H460.489V618.531H492.213V618.531Z"></path>
<path fill="black" d="M754.943 618.531V591.977H644.76V525.921H745.962V499.367H644.76V438.269H751.034V412.003H613.036V618.531H754.943Z"></path>
<path fill="black" d="M841.047 618.531V530.634H880.546C909.568 530.634 920.96 536.002 920.96 569.89V618.572H952.684V563.949C952.684 532.723 939.213 519.979 917.675 516.455C937.134 510.841 956.884 497.523 956.884 466.298C956.884 424.337 930.232 412.003 890.733 412.003H809.322V618.531H841.047ZM841.047 438.269H883.54C909.9 438.269 924.245 442.941 924.245 471.011C924.245 496.909 909.859 504.039 883.54 504.039H841.047V438.269Z"></path>
<path fill="black" d="M1087.61 623.281C1132.84 623.281 1157.33 602.096 1162.45 548.947H1129.52C1124.45 586.77 1113.34 597.055 1087.03 597.055C1055.3 597.055 1037.63 576.525 1037.63 514.444C1037.63 452.649 1054.39 433.595 1087.03 433.595C1111.72 433.595 1124.03 444.741 1128.02 480.801H1162.16C1158.37 430.234 1133.01 407 1089.1 407C1035.51 407 1004.7 438.43 1004.7 514.403C1004.7 592.425 1034.01 623.281 1087.61 623.281Z"></path>
<path fill="black" d="M1245.26 618.531V524.446H1323.39V618.572H1355.11V412.003H1323.39V497.851H1245.26V412.003H1213.54V618.531H1245.26Z"></path>
<path fill="black" d="M1571.74 618.531L1506.17 412.003H1465.76L1400.81 618.531H1432.54L1450.21 558.949H1520.56L1537.94 618.531H1571.74ZM1478.36 464.536C1481.06 455.111 1483.43 446.834 1485.55 437.983C1487.63 446.834 1489.75 454.783 1492.74 464.536L1512.78 532.682H1457.98L1478.36 464.536Z"></path>
<path fill="black" d="M1760.51 412.003H1615.61V438.269H1672.2V591.977H1615.61V618.531H1760.51V591.977H1703.92V438.269H1760.51V412.003Z"></path>
<path fill="black" d="M1848.69 618.531V470.437C1848.69 461.299 1848.69 452.161 1848.11 442.695L1915.18 618.531H1960.99V412.003H1931.35V555.999C1931.35 565.424 1931.35 575.463 1931.64 584.929L1866.07 412.003H1819.09V618.531H1848.69Z"></path>
<path fill="black" d="M42.4889 930.257V838.221H145.187V811.954H42.4889V749.996H150.551V723.729H10.7646V930.257H42.4889Z"></path>
<path fill="black" d="M274.418 935.008C324.104 935.008 352.835 905.913 352.835 827.031C352.835 748.148 324.395 718.726 274.418 718.726C224.109 718.726 195.669 748.107 195.669 826.99C195.669 905.872 224.4 935.008 274.418 935.008ZM274.418 908.741C245.979 908.741 228.599 890.587 228.599 827.031C228.599 763.474 245.064 745.321 274.418 745.321C303.149 745.321 319.905 763.474 319.905 827.031C319.905 890.587 302.525 908.741 274.418 908.741Z"></path>
<path fill="black" d="M476.365 935.011C525.76 935.011 551.206 905.793 551.206 855.636V723.729H519.482V851.785C519.482 888.378 505.429 908.744 476.365 908.744C447.011 908.744 433.249 888.378 433.249 851.785V723.729H401.524V855.595C401.524 905.793 427.261 935.011 476.365 935.011Z"></path>
<path fill="black" d="M639.047 930.258V782.205C639.047 773.067 639.047 763.929 638.465 754.463L705.531 930.299H751.35V723.771H721.705V867.767C721.705 877.192 721.705 887.231 721.996 896.697L656.427 723.812H609.443V930.34L639.047 930.258Z"></path>
<path fill="black" d="M872.805 930.257C934.757 930.257 966.814 902.638 966.814 827.567C966.814 742.742 928.479 723.729 868.606 723.729H818.92V930.257H872.805ZM850.644 749.996H869.812C914.134 749.996 933.884 764.911 933.884 826.993C933.884 894.115 909.353 903.704 870.726 903.704H850.686V749.996H850.644Z"></path>
<path fill="black" d="M1176.17 930.257L1110.6 723.729H1070.19L1005.24 930.257H1036.97L1054.64 870.675H1124.99L1142.37 930.257H1176.17ZM1082.74 776.262C1085.45 766.837 1087.82 758.56 1089.94 749.709C1092.01 758.56 1094.14 766.51 1097.13 776.262L1117.17 844.409H1062.37L1082.74 776.262Z"></path>
<path fill="black" d="M1297.95 930.257V749.996H1365.02V723.729H1198.87V749.996H1266.23V930.257H1297.95Z"></path>
<path fill="black" d="M1558.56 723.729H1413.66V749.996H1470.25V903.704H1413.66V930.257H1558.56V903.704H1501.97V749.996H1558.56V723.729Z"></path>
<path fill="black" d="M1688.08 935.008C1737.77 935.008 1766.5 905.913 1766.5 827.031C1766.5 748.148 1738.06 718.726 1688.08 718.726C1637.77 718.726 1609.33 748.107 1609.33 826.99C1609.33 905.872 1638.11 935.008 1688.08 935.008ZM1688.08 908.741C1659.64 908.741 1642.26 890.587 1642.26 827.031C1642.26 763.474 1658.73 745.321 1688.08 745.321C1716.81 745.321 1733.57 763.474 1733.57 827.031C1733.57 890.587 1716.23 908.741 1688.08 908.741Z"></path>
<path fill="black" d="M1848.69 930.258V782.205C1848.69 773.067 1848.69 763.929 1848.11 754.463L1915.17 930.299H1960.99V723.771H1931.35V867.767C1931.35 877.192 1931.35 887.231 1931.64 896.697L1866.07 723.812H1819.09V930.34L1848.69 930.258Z"></path>
</g>
<path fill="black" d="M2944.5 1321L2909.92 1320.12L2875.45 1317.37L2841.21 1312.85L2807.18 1306.57L2773.59 1298.54L2740.45 1288.73L2707.85 1277.17L2675.92 1263.96L2644.64 1249.09L2614.25 1232.57L2584.74 1214.51L2556.22 1194.91L2528.8 1173.88L2502.48 1151.42L2477.37 1127.63L2453.58 1102.52L2431.12 1076.2L2410.09 1048.78L2390.49 1020.26L2372.43 990.75L2355.91 960.357L2341.04 929.083L2327.83 897.148L2316.27 864.552L2306.46 831.406L2298.43 797.82L2292.15 763.793L2287.63 729.545L2284.88 695.078L2284 660.5L2284.88 625.922L2287.63 591.455L2292.15 557.207L2298.43 523.18L2306.46 489.594L2316.27 456.448L2327.83 423.852L2341.04 391.917L2355.91 360.643L2372.43 330.25L2390.49 300.738L2410.09 272.217L2431.12 244.797L2453.58 218.478L2477.37 193.371L2502.48 169.585L2528.8 147.12L2556.22 126.087L2584.74 106.486L2614.25 88.4264L2644.64 71.9084L2675.92 57.0422L2707.85 43.8278L2740.45 32.2652L2773.59 22.4645L2807.18 14.4257L2841.21 8.14888L2875.45 3.63396L2909.92 0.88096L2944.5 0L2979.08 0.88096L3013.55 3.63396L3047.79 8.14888L3081.82 14.4257L3115.41 22.4645L3148.55 32.2652L3181.15 43.8278L3213.08 57.0422L3244.25 71.9084L3274.64 88.4264L3304.15 106.486L3332.67 126.087L3360.09 147.12L3386.41 169.585L3411.52 193.371L3435.3 218.478L3457.77 244.797L3478.8 272.217L3498.4 300.738L3516.46 330.25L3532.98 360.643L3547.85 391.807L3561.06 423.742L3572.62 456.337L3582.43 489.484L3590.46 523.07L3596.74 557.097L3601.26 591.345L3604.01 625.812L3604.89 660.72L3604.01 694.968L3601.26 729.435L3596.74 763.682L3590.46 797.71L3582.43 831.296L3572.62 864.442L3561.06 897.038L3547.85 928.973L3532.98 960.247L3516.46 990.64L3498.4 1020.15L3478.8 1048.67L3457.77 1076.09L3435.3 1102.41L3411.52 1127.52L3386.41 1151.31L3360.09 1173.77L3332.67 1194.8L3304.15 1214.4L3274.64 1232.46L3244.25 1248.98L3213.08 1263.85L3181.15 1277.06L3148.55 1288.62L3115.41 1298.43L3081.82 1306.46L3047.79 1312.74L3013.44 1317.26L2978.97 1320.01L2944.39 1320.89L2944.5 1321ZM2944.17 23.6758L2910.8 24.5568L2877.55 27.1996L2844.51 31.6045L2811.7 37.6611L2779.32 45.4796L2747.39 54.9499L2716 66.072L2685.17 78.8459L2655.1 93.1616L2625.81 109.019L2597.4 126.418L2569.98 145.358L2543.55 165.621L2518.23 187.314L2494.11 210.219L2471.2 234.446L2449.51 259.773L2429.25 286.202L2410.42 313.622L2393.02 342.033L2377.16 371.325L2362.85 401.388L2350.07 432.221L2338.95 463.605L2329.48 495.54L2321.66 527.915L2315.6 560.731L2311.31 593.767L2308.67 627.024L2307.79 660.39L2308.67 693.756L2311.31 727.013L2315.71 760.049L2321.77 792.864L2329.59 825.24L2339.06 857.174L2350.18 888.559L2362.96 919.392L2377.27 949.455L2393.13 978.747L2410.53 1007.16L2429.47 1034.58L2449.73 1061.01L2471.42 1086.33L2494.33 1110.45L2518.56 1133.36L2543.88 1155.05L2570.31 1175.31L2597.73 1194.14L2626.14 1211.54L2655.43 1227.4L2685.5 1241.71L2716.33 1254.49L2747.72 1265.61L2779.65 1275.08L2812.03 1282.9L2844.84 1288.96L2877.88 1293.25L2911.13 1295.89L2944.5 1296.77L2977.87 1295.89L3011.12 1293.25L3044.16 1288.84L3076.97 1282.79L3109.35 1274.97L3141.28 1265.5L3172.67 1254.38L3203.5 1241.6L3233.57 1227.29L3262.86 1211.43L3291.27 1194.03L3318.69 1175.2L3345.12 1154.94L3370.44 1133.25L3394.67 1110.34L3417.58 1086.11L3439.16 1060.79L3459.42 1034.36L3478.25 1006.94L3495.65 978.527L3511.51 949.235L3525.82 919.172L3538.6 888.338L3549.72 856.954L3559.19 825.019L3567.01 792.644L3573.07 759.828L3577.47 726.792L3580.11 693.536L3580.99 660.39L3580.11 626.913L3577.47 593.657L3573.07 560.621L3567.01 527.805L3559.19 495.43L3549.72 463.495L3538.6 432.111L3525.82 401.277L3511.51 371.215L3495.65 341.923L3478.25 313.512L3459.42 286.092L3439.16 259.663L3417.47 234.335L3394.56 210.219L3370.33 187.314L3345.01 165.731L3318.58 145.469L3291.16 126.638L3262.75 109.239L3233.45 93.3818L3203.39 79.0662L3172.56 66.2923L3141.17 55.1701L3109.24 45.6998L3076.86 37.8813L3044.05 31.8247L3011.01 27.53L2977.76 24.8871L2944.39 24.0062L2944.17 23.6758Z"></path>
<path fill="black" d="M2956.39 1309H2932.39V1212.64L2923.69 1212.42L2902.87 1210.99L2882.28 1208.57L2862.02 1205.37L2842.2 1201.19L2822.93 1196.23L2804.32 1190.51L2786.37 1184.12L2769.19 1177.18L2752.78 1169.7L2737.14 1161.77L2722.39 1153.4L2708.51 1144.7L2695.41 1135.78L2671.73 1117.5L2651.36 1098.89L2634.07 1080.28L2619.65 1062.22L2607.64 1044.49L2597.95 1027.31L2590.35 1010.9L2584.52 995.265L2580.33 980.399L2577.58 966.194L2576.59 957.384L2563.59 945.381L2544.1 924.899L2534.74 913.777L2525.6 902.104L2516.79 889.88L2508.31 877.107L2500.28 863.782L2492.68 849.907L2485.52 835.591L2478.8 820.835L2472.64 805.639L2467.02 790.002L2462.06 773.924L2457.77 757.516L2454.14 740.888L2451.16 723.93L2448.85 706.861L2447.31 689.572L2446.43 672.393H2295.67V648.387H2446.1L2446.43 637.485L2447.75 620.196L2449.84 603.018L2452.59 586.059L2456.01 569.321L2460.08 552.803L2464.82 536.615L2470.21 520.758L2476.16 505.341L2482.66 490.365L2489.7 475.829L2497.19 461.844L2505.12 448.299L2513.38 435.305L2522.08 422.861L2531.11 410.968L2549.94 388.944L2569.65 369.123L2576.37 363.176L2577.25 355.358L2580 341.152L2584.19 326.176L2589.91 310.429L2597.51 293.911L2607.09 276.732L2618.99 258.893L2633.41 240.613L2650.81 221.892L2671.18 203.282L2682.63 194.032L2694.75 185.002L2707.85 176.082L2721.73 167.493L2736.59 159.124L2752.12 151.195L2768.64 143.707L2785.82 136.769L2803.88 130.382L2822.49 124.656L2841.76 119.701L2861.58 115.516L2881.84 112.213L2902.43 109.79L2932.5 108.138V11.6731H2956.5V108.028L2965.2 108.248L2986.02 109.68L3006.61 112.103L3026.87 115.296L3046.69 119.481L3065.96 124.436L3084.57 130.162L3102.52 136.549L3119.7 143.487L3136.22 150.975L3151.86 158.904L3166.61 167.273L3180.49 175.972L3193.59 184.892L3205.81 194.032L3217.27 203.282L3237.64 221.892L3254.93 240.503L3269.35 258.562L3281.36 276.292L3291.05 293.47L3298.65 309.878L3304.48 325.515L3308.67 340.381L3311.42 354.587L3312.41 363.396L3328.71 378.703L3348.09 399.626L3357.45 410.968L3366.48 422.861L3375.18 435.305L3383.55 448.299L3391.48 461.844L3398.97 475.829L3406.01 490.365L3412.51 505.341L3418.46 520.758L3423.85 536.615L3428.59 552.803L3432.66 569.321L3436.08 586.059L3438.83 603.018L3440.92 620.196L3442.68 648.938H3593.11V672.944H3442.79L3442.02 689.572L3440.48 706.861L3438.17 724.04L3435.19 740.998L3431.56 757.626L3427.27 774.034L3422.31 790.112L3416.8 805.749L3410.64 821.055L3404.03 835.922L3396.87 850.237L3389.27 864.112L3381.24 877.437L3372.76 890.211L3363.95 902.434L3354.81 914.107L3335.76 935.801L3312.52 958.155L3311.64 965.973L3309 980.179L3304.81 995.155L3299.09 1010.9L3291.49 1027.42L3281.91 1044.6L3270.01 1062.44L3255.59 1080.72L3238.19 1099.44L3217.82 1118.05L3206.37 1127.3L3194.25 1136.33L3181.15 1145.25L3167.27 1153.84L3152.41 1162.21L3136.88 1170.14L3120.36 1177.62L3103.18 1184.56L3085.12 1190.95L3066.51 1196.67L3047.24 1201.63L3027.53 1205.81L3007.27 1209.12L2986.68 1211.54L2956.61 1213.19V1309.55L2956.39 1309ZM2605 980.289L2607.09 987.887L2612.27 1001.76L2619.1 1016.41L2627.79 1031.94L2638.7 1048.12L2652.02 1064.86L2667.88 1081.82L2686.82 1099.11L2708.84 1116.18L2721.07 1124.55L2734.17 1132.7L2748.05 1140.51L2762.69 1148L2778.22 1155.05L2794.52 1161.66L2811.48 1167.6L2829.09 1173L2847.37 1177.62L2866.09 1181.59L2885.26 1184.67L2904.75 1186.98L2932.06 1188.53V1104.39L2910.25 1102.41L2888.34 1098.34L2867.53 1092.39L2848.14 1084.79L2830.42 1075.87L2814.67 1065.74L2800.9 1054.84L2787.69 1041.52L2775.69 1041.3L2756.97 1039.75L2737.69 1037L2717.98 1032.82L2697.83 1027.09L2677.35 1019.82L2656.54 1010.79L2635.61 999.89L2614.47 986.896L2604.89 980.289H2605ZM2956.39 1104.5V1188.64L2964.54 1188.42L2984.25 1187.09L3003.74 1184.78L3023.02 1181.7L3041.74 1177.73L3060.02 1173L3077.64 1167.6L3094.7 1161.55L3110.89 1154.94L3126.42 1147.89L3141.06 1140.4L3155.05 1132.58L3168.04 1124.44L3180.38 1116.07L3202.4 1099L3221.34 1081.71L3237.31 1064.53L3250.74 1047.57L3261.54 1031.38L3270.24 1015.86L3277.06 1001.1L3282.13 987.227L3284 980.509L3264.29 993.614L3253.83 999.78L3233.12 1010.57L3212.31 1019.71L3191.72 1027.09L3171.57 1032.82L3151.86 1037L3132.59 1039.86L3113.86 1041.41L3101.09 1041.74L3094.37 1048.89L3081.71 1060.24L3066.95 1070.81L3050.22 1080.39L3031.6 1088.76L3011.45 1095.58L2989.98 1100.65L2967.63 1103.73L2956.5 1104.5H2956.39ZM2956.39 996.367V1080.39L2975.44 1078.63L2995.16 1074.88L3013.77 1069.49L3031.05 1062.66L3046.58 1054.73L3060.35 1045.92L3072.13 1036.56L3081.93 1026.76L3089.75 1016.96L3095.69 1007.27L3099.99 997.798L3102.63 988.768L3103.95 980.179V975.994L3102.96 964.322L3101.2 957.935L3088.65 964.322L3073.56 971.039L3058.14 976.985L3042.51 982.161L3026.65 986.566L3010.57 990.2L2994.27 993.063L2977.87 995.045L2956.61 996.367H2956.39ZM2787.8 957.935L2785.27 968.947L2784.83 976.875L2785.6 985.244L2787.69 994.054L2791.21 1003.3L2796.39 1012.77L2803.33 1022.46L2812.14 1032.27L2822.93 1041.85L2835.7 1050.99L2850.35 1059.36L2866.76 1066.73L2884.81 1072.79L2904.09 1077.3L2924.24 1080.06L2932.5 1080.61V996.587H2928.31L2911.79 995.265L2895.39 993.283L2879.09 990.53L2863.01 986.896L2847.04 982.491L2831.41 977.316L2815.99 971.369L2800.9 964.652L2787.8 958.045V957.935ZM3122.12 945.821L3125.1 954.301L3127.3 964.982L3128.07 976.325L3127.19 988.108L3124.55 1000.22L3120.03 1012.44L3117.83 1016.85L3129.83 1015.86L3147.56 1013.21L3165.84 1009.36L3184.45 1004.07L3203.5 997.247L3222.77 988.768L3242.15 978.637L3261.43 966.744L3280.81 952.759L3289.4 945.821V939.545L3288.96 929.634L3287.63 920.384L3285.65 911.684L3283.12 903.535L3280.15 895.937L3276.73 888.779L3268.69 875.785L3259.44 864.223L3248.98 853.981L3237.64 844.841L3229.38 839.115L3224.43 847.044L3214.95 860.589L3204.82 873.583L3194.03 886.136L3182.69 898.139L3170.8 909.482L3158.35 920.274L3145.36 930.405L3122.45 945.932L3122.12 945.821ZM2599.6 945.821L2618.21 960.247L2637.71 973.241L2647.51 978.968L2667.11 989.209L2686.38 997.578L2705.43 1004.3L2724.04 1009.58L2742.21 1013.44L2759.94 1015.97L2771.17 1016.85L2766.77 1007.05L2763.02 994.935L2761.15 983.042L2760.82 977.206L2761.48 965.863L2763.57 955.072L2766.77 945.711L2757.85 940.095L2744.3 930.625L2731.31 920.494L2718.75 909.702L2706.75 898.36L2695.3 886.357L2684.51 873.913L2674.38 860.919L2659.51 839.005L2650.81 845.062L2639.47 854.312L2629.01 864.663L2619.76 876.336L2611.83 889.44L2608.41 896.598L2605.44 904.196L2603.02 912.345L2601.15 921.044L2599.93 930.405L2599.38 940.426V945.711L2599.6 945.821ZM2799.91 937.122L2811.25 942.848L2825.24 949.015L2839.56 954.521L2854.09 959.256L2868.85 963.331L2883.82 966.634L2898.91 969.277L2914.11 971.149L2932.39 972.36V888.779L2897.59 892.083L2867.97 898.47L2845.06 906.288L2824.58 916.53L2810.59 926.44L2799.91 937.012V937.122ZM2956.5 888.779V972.36H2960.14L2975.44 971.149L2990.64 969.277L3005.73 966.634L3020.7 963.22L3035.46 959.146L3049.99 954.301L3064.31 948.795L3078.3 942.518L3089.09 937.122L3081.16 928.973L3067.72 918.732L3052.09 910.032L3030.06 901.333L3001.1 893.955L2965.2 889.44L2956.39 889L2956.5 888.779ZM3056.71 885.696L3071.91 893.184L3089.31 904.526L3100.98 914.657L3110.12 925.009L3118.27 919.833L3130.82 911.024L3142.94 901.553L3154.5 891.532L3165.62 880.961L3176.19 869.839L3186.21 858.276L3195.68 846.163L3208.68 827.112L3192.71 819.624L3164.3 809.052L3127.08 798.811L3098.89 793.085L3092.5 812.246L3083.8 834.27L3073.67 855.963L3062.22 877.217L3056.93 885.696H3056.71ZM2680.54 827.002L2685.06 834.05L2693.87 846.603L2703.34 858.716L2713.36 870.279L2723.93 881.401L2735.05 891.973L2746.72 901.994L2758.84 911.354L2778.99 925.009L2787.69 915.098L2799.36 904.857L2812.25 896.047L2832.29 885.696L2827.33 877.877L2815.77 856.624L2805.64 834.931L2796.83 812.907L2790.22 793.085L2746.83 802.665L2717.43 811.585L2689.35 822.817L2680.54 827.112V827.002ZM2470.21 672.283L2470.98 687.81L2472.53 704.108L2474.73 720.185L2477.59 736.153L2481 751.79L2485.08 767.207L2489.7 782.293L2494.99 797.049L2500.72 811.365L2506.99 825.24L2513.71 838.675L2520.87 851.669L2528.47 864.112L2536.4 876.115L2553.13 898.47L2570.97 918.732L2576.59 924.458L2577.58 916.86L2579.89 906.288L2582.87 896.378L2586.5 887.017L2590.68 878.318L2595.31 870.169L2600.37 862.461L2611.5 848.585L2623.72 836.362L2636.82 825.68L2647.73 818.082L2640.68 804.207L2633.96 789.121L2628.02 773.704L2622.84 758.067L2618.43 742.209L2614.8 726.132L2611.94 709.834L2609.96 693.426L2608.63 672.173H2470.43L2470.21 672.283ZM3241.38 818.192L3251.85 825.46L3264.84 836.032L3277.06 848.145L3288.18 861.91L3293.25 869.508L3297.88 877.657L3302.06 886.357L3305.69 895.607L3308.78 905.518L3311.09 916.089L3312.3 924.568L3327.28 908.711L3344.57 887.348L3352.83 875.895L3360.75 863.892L3368.35 851.338L3375.51 838.344L3382.23 824.91L3388.5 811.035L3394.23 796.719L3399.41 781.963L3404.03 766.876L3408.11 751.46L3411.52 735.712L3414.27 719.745L3416.47 703.667L3417.91 687.37L3418.68 672.393H3280.48V676.578L3279.15 693.096L3277.17 709.504L3274.42 725.802L3270.79 741.879L3266.38 757.736L3261.21 773.373L3255.26 788.79L3248.54 803.877L3241.27 818.302L3241.38 818.192ZM2956.5 864.663L2989.32 867.416L3021.91 873.693L3033.7 876.996L3041.3 864.883L3052.09 844.951L3061.56 824.579L3069.82 803.767L3074.77 788.9L3017.07 782.734L2956.61 780.201V864.443L2956.5 864.663ZM2814.23 789.121L2819.4 804.537L2827.66 825.35L2837.24 845.722L2848.03 865.654L2855.19 877.107L2877.44 871.27L2910.47 866.095L2932.28 864.663V780.421L2863.67 783.504L2814.01 789.01L2814.23 789.121ZM3105.17 769.739L3140.18 777.228L3171.46 786.147L3194.36 794.406L3220.46 806.299L3226.85 793.636L3233.01 779.65L3238.52 765.335L3243.37 750.799L3247.44 736.043L3250.74 721.066L3253.39 705.98L3255.26 690.783L3256.47 672.503H3118.38V675.587L3117.06 698.712L3114.53 721.727L3110.78 744.632L3105.17 769.96V769.739ZM2632.42 672.283V675.917L2633.63 691.224L2635.5 706.42L2638.15 721.507L2641.56 736.483L2645.63 751.239L2650.48 765.775L2655.99 780.091L2662.26 794.076L2668.43 806.189L2686.71 797.6L2709.5 788.79L2740.67 779.32L2783.72 769.739L2783.17 767.867L2778.22 745.073L2774.47 722.168L2771.94 699.153L2770.51 672.393H2632.42V672.283ZM2794.52 672.283V675.146L2795.84 697.06L2798.26 718.864L2801.78 740.558L2807.51 765.775L2861.91 759.608L2932.39 756.415V672.283H2794.52V672.283ZM2956.5 756.415L3026.87 759.608L3081.38 765.775L3082.59 761.48L3087.22 739.897L3090.74 718.203L3093.16 696.4L3094.48 672.283H2956.5V756.415V756.415ZM3280.48 648.277H3418.68L3418.35 638.256L3417.03 621.958L3415.04 605.771L3412.4 589.803L3409.21 574.056L3405.35 558.529L3400.84 543.333L3395.77 528.466L3390.16 514.041L3383.99 499.945L3377.38 486.29L3370.33 473.186L3362.85 460.522L3355.03 448.409L3338.4 425.614L3320.78 405.022L3312.08 395.992L3311.09 403.7L3308.78 414.272L3305.8 424.183L3302.17 433.543L3297.99 442.242L3293.36 450.391L3288.29 458.1L3277.17 471.975L3264.95 484.088L3251.85 494.77L3240.94 502.368L3247.99 516.243L3254.71 531.33L3260.65 546.746L3265.83 562.383L3270.24 578.351L3273.87 594.428L3276.73 610.726L3278.71 627.134L3280.04 648.387L3280.48 648.277ZM3118.38 648.277H3256.47V644.643L3255.26 629.336L3253.39 614.14L3250.74 599.053L3247.33 584.077L3243.26 569.321L3238.41 554.785L3232.9 540.47L3226.63 526.484L3220.46 514.371L3202.07 522.96L3179.28 531.77L3148.11 541.24L3104.94 550.821L3107.37 560.291L3111.88 583.086L3115.19 606.101L3117.39 629.116L3118.16 648.277H3118.38ZM2956.5 648.277H3094.37L3093.6 630.768L3091.51 608.964L3088.32 587.16L3084.02 565.577L3081.27 554.785L3026.98 560.952L2956.5 564.145V648.277V648.277ZM2794.63 648.277H2932.5V564.145L2862.13 560.952L2807.73 554.785L2804.87 566.238L2800.57 587.821L2797.49 609.515L2795.51 631.319L2794.85 648.167L2794.63 648.277ZM2632.53 648.277H2770.62L2771.39 629.777L2773.48 606.762L2776.79 583.747L2783.83 550.821L2748.71 543.333L2717.43 534.413L2694.53 526.154L2668.43 514.261L2662.04 526.925L2655.88 540.91L2650.37 555.226L2645.63 569.761L2641.56 584.518L2638.26 599.494L2635.61 614.58L2633.74 629.777L2632.53 648.057V648.277ZM2470.32 648.277H2608.52V644.092L2609.85 627.574L2611.83 611.167L2614.58 594.869L2618.21 578.791L2622.62 562.824L2627.79 547.187L2633.74 531.77L2640.46 516.684L2647.73 502.258L2637.27 494.99L2624.27 484.418L2612.05 472.305L2600.93 458.54L2595.86 450.942L2591.23 442.793L2587.05 434.094L2583.42 424.843L2580.33 414.933L2578.02 404.361L2576.81 395.772L2558.97 415.153L2550.27 425.724L2533.75 448.519L2525.93 460.632L2518.56 473.296L2511.51 486.401L2504.9 500.055L2498.84 514.151L2493.23 528.687L2488.16 543.553L2483.65 558.749L2479.79 574.276L2476.6 590.024L2474.07 605.991L2472.2 622.179L2470.65 648.057L2470.32 648.277ZM2956.5 455.897V540.139L3025.11 537.056L3074.88 531.55L3069.71 516.243L3064.31 502.368L3058.36 488.603L3051.87 475.058L3044.82 461.734L3033.92 443.564L3011.56 449.4L2978.53 454.576L2956.72 456.007L2956.5 455.897ZM2814.23 531.44L2872.04 537.606L2932.5 540.139V455.897L2899.68 453.144L2867.09 446.867L2855.19 443.454L2851.67 448.96L2843.96 462.064L2836.91 475.389L2830.42 488.933L2824.47 502.698L2819.07 516.573L2814.01 531.44H2814.23ZM3056.93 434.864L3057.59 435.855L3065.74 449.841L3073.23 464.046L3080.17 478.472L3086.44 493.118L3092.17 507.874L3098.78 527.585L3142.17 518.005L3171.57 509.085L3199.65 497.853L3208.46 493.558L3203.94 486.511L3195.13 473.957L3185.66 461.844L3175.64 450.281L3165.07 439.159L3153.95 428.588L3142.28 418.567L3130.16 409.096L3110.01 395.441L3101.31 405.352L3089.64 415.593L3076.64 424.403L3056.71 434.644L3056.93 434.864ZM2680.54 493.558L2696.51 501.047L2724.92 511.618L2762.14 521.859L2790.22 527.585L2791.54 523.181L2796.61 508.314L2802.34 493.558L2808.61 479.023L2815.44 464.597L2822.93 450.391L2832.07 434.975L2816.98 427.596L2803.66 419.337L2791.54 409.647L2778.66 395.772L2770.62 400.947L2758.07 409.757L2745.95 419.227L2734.39 429.248L2723.27 439.82L2712.7 450.942L2702.68 462.615L2693.32 474.728L2680.32 493.779L2680.54 493.558ZM2599.71 374.959V381.126L2600.15 391.037L2601.48 400.287L2603.46 408.986L2605.99 417.135L2608.96 424.733L2616.23 438.498L2624.93 450.722L2634.84 461.624L2645.74 471.314L2659.84 481.555L2664.8 473.627L2674.27 460.082L2684.4 447.088L2695.19 434.534L2706.53 422.531L2718.53 411.078L2730.98 400.287L2743.97 390.156L2766.88 374.629L2763.9 366.149L2761.7 355.468L2760.93 344.125L2761.81 332.343L2764.45 320.229L2768.97 308.006L2771.17 303.491H2770.84L2747.5 306.244L2723.27 311.089L2710.83 314.503L2698.27 318.468L2685.61 323.203L2672.72 328.599L2659.84 334.765L2646.85 341.703L2633.85 349.521L2620.86 358.221L2599.49 374.739L2599.71 374.959ZM3122.23 374.959L3131.15 380.575L3144.7 390.046L3157.69 400.177L3170.25 410.968L3182.25 422.311L3193.7 434.314L3204.49 446.757L3214.62 459.752L3229.49 481.665L3238.19 475.609L3249.53 466.359L3259.99 456.007L3269.24 444.335L3277.17 431.23L3280.59 424.073L3283.56 416.474L3285.98 408.325L3287.85 399.626L3289.07 390.266L3289.62 380.245L3289.4 375.069L3280.37 367.691L3267.48 358.221L3254.49 349.632L3241.49 341.813L3228.5 334.875L3215.62 328.709L3202.73 323.313L3189.96 318.688L3177.4 314.723L3152.85 308.667L3129.06 304.923L3117.72 303.932L3122.23 313.842L3125.98 325.956L3127.85 337.849L3128.18 343.685L3127.52 355.027L3125.43 365.819L3122.23 375.179V374.959ZM2956.5 348.42V432.001L2991.41 428.698L3021.03 422.311L3043.94 414.492L3064.42 404.251L3078.41 394.34L3089.09 383.769L3077.75 378.042L3063.76 371.876L3049.44 366.37L3034.91 361.524L3020.15 357.45L3005.18 354.146L2990.09 351.504L2974.89 349.632L2956.61 348.42H2956.5ZM2799.91 383.659L2807.84 391.807L2821.28 402.049L2836.91 410.748L2858.94 419.448L2887.9 426.826L2923.8 431.341L2932.61 431.781V348.2H2928.97L2913.67 349.411L2898.47 351.283L2883.38 353.926L2868.41 357.34L2853.65 361.414L2839.12 366.26L2824.8 371.766L2810.81 378.042L2800.02 383.438L2799.91 383.659ZM2956.5 324.414H2960.69L2977.1 325.735L2993.5 327.718L3009.8 330.471L3025.88 334.105L3041.85 338.509L3057.48 343.685L3072.9 349.632L3087.99 356.349L3101.09 362.956L3103.62 351.944L3104.06 344.015L3103.29 335.646L3101.2 326.837L3097.68 317.587L3092.5 308.006L3085.56 298.316L3076.75 288.625L3065.96 279.045L3053.19 270.015L3038.54 261.646L3022.13 254.268L3004.07 248.211L2984.8 243.696L2964.65 240.943L2956.28 240.392V324.414H2956.5ZM2932.5 240.392L2913.45 242.154L2893.73 245.898L2875.12 251.294L2857.84 258.122L2842.31 266.05L2828.65 274.86L2816.87 284.33L2807.07 294.021L2799.25 303.822L2793.31 313.512L2789.12 322.982L2786.48 332.012L2785.16 340.602V344.676L2786.15 356.349L2787.91 362.736L2800.46 356.459L2815.55 349.742L2830.97 343.795L2846.6 338.619L2862.46 334.215L2878.54 330.581L2894.84 327.718L2911.24 325.735L2932.5 324.414V240.392V240.392ZM3100.87 279.155L3119.15 279.815L3131.7 280.917L3144.48 282.679L3157.47 284.991L3170.69 287.964L3184.12 291.598L3197.67 295.893L3211.43 300.958L3225.31 306.795L3239.29 313.402L3253.28 320.89L3267.26 329.259L3283.89 340.492L3281.69 332.783L3276.51 318.908L3269.68 304.262L3260.87 288.735L3249.97 272.547L3236.65 255.809L3220.79 238.851L3201.85 221.562L3179.83 204.493L3167.6 196.124L3154.61 187.975L3140.73 180.157L3126.09 172.669L3110.56 165.621L3094.26 159.014L3077.3 153.067L3059.69 147.671L3041.41 143.046L3022.69 139.082L3003.52 135.999L2984.03 133.686L2956.72 132.144V216.276L2978.53 218.258L3000.44 222.333L3021.25 228.279L3040.63 235.878L3058.36 244.797L3074.11 254.818L3087.88 265.72L3101.09 279.045L3100.87 279.155ZM2932.5 132.255L2924.35 132.475L2904.53 133.796L2885.04 136.109L2865.76 139.192L2847.04 143.156L2828.76 147.892L2811.14 153.287L2794.08 159.344L2777.89 165.951L2762.36 172.999L2747.72 180.487L2733.73 188.306L2720.74 196.455L2708.4 204.824L2686.38 221.892L2667.44 239.181L2651.47 256.36L2638.04 273.318L2627.13 289.506L2618.43 305.033L2611.72 319.789L2606.65 333.664L2604.78 340.381L2606.98 338.73L2620.97 329.369L2634.95 321L2648.94 313.512L2662.92 306.905L2676.8 301.069L2690.56 296.003L2704.11 291.708L2717.54 288.074L2730.76 285.101L2756.53 281.027L2787.91 279.155L2794.52 271.997L2807.18 260.655L2821.94 250.083L2838.67 240.503L2857.28 232.133L2877.44 225.306L2898.91 220.24L2921.26 217.157L2932.39 216.386V132.255H2932.5Z"></path>
<defs>
<clipPath id="clip0_1827_14605">
<rect transform="translate(0 407)" fill="white" height="528" width="1961"></rect>
</clipPath>
</defs>
</svg>
