<svg width="49" height="16" viewBox="0 0 49 16" fill="none" xmlns="http://www.w3.org/2000/svg">
<g clip-path="url(#clip0_303_200777)">
<path d="M13.0676 13.5292C11.6488 13.5292 10.5009 12.3788 10.5009 10.9618V7.11723H13.8114V4.88101H10.5009V1.18266L7.96418 2.53727V4.88101H3.1531C-0.200482 4.88101 -1.08185 8.9234 1.49783 10.4286L4.1205 12.1917C4.70092 12.6218 4.46445 13.5249 3.64756 13.5249H0.0789986V15.7826H3.64756C7.02261 15.7826 7.88251 11.7402 5.30283 10.235L2.70166 8.47188C2.12124 8.04182 2.33621 7.11723 3.1531 7.11723H7.96418V10.9919C7.96418 13.9162 9.98493 15.7847 13.0375 15.7847H13.8114V13.5292H13.0676ZM20.3077 7.11733C18.8889 7.11733 17.7409 8.26768 17.7409 9.68467V15.7848H15.2043V9.65457C15.2043 6.7303 17.225 4.8811 20.2776 4.8811H21.2386V7.11733H20.3077ZM23.8915 0C24.7729 0 25.4823 0.709542 25.4823 1.59116C25.4823 2.47274 24.7729 3.18231 23.8915 3.18231C23.0101 3.18231 22.3007 2.47277 22.3007 1.59116C22.3007 0.709573 23.0101 0 23.8915 0ZM22.6232 4.88098H25.1598V15.7825H22.6232V4.88098ZM32.114 15.7827C28.5883 15.7827 26.2236 13.611 26.2236 10.3211C26.2236 7.03132 28.5883 4.88113 32.114 4.88113H33.7477V0.0861609H36.2843V15.7827H32.114ZM32.114 13.525H33.7477V7.11733H32.114C30.1146 7.11733 28.7603 8.40747 28.7603 10.3211C28.7603 12.2348 30.1146 13.525 32.114 13.525ZM41.5406 13.4843C42.0349 13.7423 42.594 13.8928 43.1958 13.8928C45.1306 13.8928 46.6783 12.3231 46.6783 10.3234H49C49 13.5058 46.4204 16 43.1098 16C39.7992 16 37.3701 13.5273 37.3701 10.4095C37.3701 7.29164 39.9711 4.66839 43.2603 4.66839C44.8727 4.66839 46.7858 5.27043 48.0326 6.99062L41.5406 13.4843ZM40.0786 11.9576L44.8512 7.18414C44.3351 6.90459 43.7764 6.77558 43.1958 6.77558C41.2394 6.77558 39.6917 8.34524 39.6917 10.3234C39.6917 10.9255 39.8207 11.4845 40.0786 11.9576Z" fill="black"/>
</g>
<defs>
<clipPath id="clip0_303_200777">
<rect width="49" height="16" fill="white"/>
</clipPath>
</defs>
</svg>
