<svg width="145" height="16" viewBox="0 0 145 16" fill="none" xmlns="http://www.w3.org/2000/svg">
<path d="M7.7949 12.6344V14.8232H4.56242C3.98595 14.8233 3.43295 14.5949 3.02445 14.1881C2.61596 13.7814 2.38525 13.2293 2.3828 12.6529V6.74204H0V4.6086H2.37357V1.53312H4.83025V4.59936H7.78567V6.75127H4.83025V12.6344H7.78567H7.7949ZM8.82006 9.93758C8.78671 9.23877 8.89807 8.54059 9.14716 7.88683C9.39625 7.23307 9.77771 6.63781 10.2676 6.13836C10.7575 5.63892 11.3453 5.24606 11.9942 4.98441C12.643 4.72276 13.3389 4.59796 14.0382 4.61783C14.7368 4.59925 15.4317 4.72501 16.0794 4.98724C16.7271 5.24946 17.3138 5.64252 17.8027 6.14183C18.2916 6.64114 18.6722 7.23595 18.9208 7.88907C19.1693 8.54219 19.2804 9.23956 19.2471 9.93758C19.2791 10.6348 19.167 11.3312 18.9179 11.9832C18.6688 12.6353 18.288 13.2289 17.7992 13.7272C17.3104 14.2255 16.7242 14.6178 16.0771 14.8794C15.43 15.1411 14.736 15.2666 14.0382 15.2481C13.3397 15.2679 12.6446 15.1433 11.9964 14.8822C11.3482 14.6212 10.7609 14.2291 10.2711 13.7307C9.78137 13.2323 9.39971 12.6381 9.15003 11.9855C8.90035 11.3328 8.78802 10.6356 8.82006 9.93758ZM16.7904 9.93758C16.7904 8.09045 15.6083 6.87134 14.0382 6.87134C12.4589 6.87134 11.2675 8.09045 11.2675 9.93758C11.2675 11.7755 12.4589 13.0038 14.0382 13.0038C15.6083 13.0038 16.7904 11.7755 16.7904 9.93758ZM23.4217 9.44809V14.8232H20.9742V0H23.4217V9.06019L27.393 4.61783H30.6255L26.1185 9.23567L30.8748 14.814H27.8086L23.4124 9.43885L23.4217 9.44809Z" fill="#111C26"/>
<path d="M40.868 10.5287H33.1839C33.4518 12.0248 34.4308 12.8838 35.9454 12.8838C37.026 12.8838 37.6632 12.4774 37.9865 11.757H40.6464C40.0368 13.8812 38.2543 15.0264 35.8438 15.0264C32.9253 15.0264 30.7734 12.8376 30.7734 9.71592C30.7734 6.58503 32.9253 4.39618 35.8438 4.39618C38.7623 4.39618 40.9234 6.58503 40.9234 9.71592C40.9142 9.99299 40.8957 10.2701 40.868 10.5287ZM33.2024 8.79236H38.476C38.2174 7.36083 37.2753 6.54809 35.8438 6.54809C34.4123 6.54809 33.4703 7.36083 33.2024 8.79236ZM45.0887 14.8232H42.632V4.59936H45.0887V6.07707C45.3807 5.55559 45.8092 5.12354 46.3283 4.82737C46.8474 4.53121 47.4374 4.38214 48.0349 4.39618C50.2053 4.39618 51.84 5.82771 51.84 8.70924V14.8232H49.3833V9.19873C49.3833 7.49013 48.5613 6.54809 47.2314 6.54809C45.9107 6.54809 45.0887 7.49013 45.0887 9.19873V14.8325V14.8232ZM66.6632 12.6344V14.8232H63.4308C62.8543 14.8233 62.3013 14.5949 61.8928 14.1881C61.4843 13.7814 61.2536 13.2293 61.2511 12.6529V6.74204H58.8776V4.6086H61.2511V1.53312H63.7078V4.59936H66.6632V6.75127H63.7078V12.6344H66.6632ZM77.8384 10.5287H70.1451C70.4129 12.0248 71.3919 12.8838 72.9158 12.8838C73.9871 12.8838 74.6244 12.4774 74.9476 11.757H77.6168C76.998 13.8812 75.2155 15.0264 72.8142 15.0264C69.8865 15.0264 67.7346 12.8376 67.7346 9.71592C67.7346 6.58503 69.8865 4.39618 72.8142 4.39618C75.7327 4.39618 77.8846 6.58503 77.8846 9.71592C77.8846 9.99299 77.8569 10.2701 77.8384 10.5287ZM70.1728 8.79236H75.4464C75.1878 7.36083 74.2457 6.54809 72.8142 6.54809C71.3734 6.54809 70.4314 7.36083 70.1728 8.79236ZM89.8632 14.8232H87.4158V4.59936H89.8725V5.9293C90.1518 5.45477 90.552 5.06284 91.0323 4.79351C91.5126 4.52417 92.0557 4.38706 92.6062 4.39618C93.9916 4.39618 95.1645 5.03344 95.7556 6.28025C96.0521 5.69334 96.5108 5.20383 97.0772 4.86987C97.6437 4.5359 98.294 4.3715 98.9511 4.39618C101.011 4.39618 102.553 5.77229 102.553 8.50605V14.8232H100.096V9.00478C100.096 7.40701 99.3575 6.54809 98.1569 6.54809C96.947 6.54809 96.2174 7.40701 96.2174 8.99554V14.8232H93.7515V9.00478C93.7515 7.40701 93.0126 6.54809 91.812 6.54809C90.6113 6.54809 89.8725 7.40701 89.8725 8.99554V14.8232H89.8632ZM104.576 1.53312C104.576 0.655732 105.231 0 106.109 0C107.014 0 107.642 0.655732 107.642 1.53312C107.642 2.39204 107.014 3.06624 106.109 3.06624C105.231 3.06624 104.576 2.39204 104.576 1.53312ZM107.337 4.59936H104.88V14.8232H107.337V4.59936ZM112.232 14.8232H109.775V4.59936H112.232V6.07707C112.523 5.55699 112.95 5.12586 113.468 4.82978C113.985 4.5337 114.573 4.38383 115.169 4.39618C117.339 4.39618 118.974 5.82771 118.974 8.70924V14.8232H116.527V9.19873C116.527 7.49013 115.705 6.54809 114.375 6.54809C113.045 6.54809 112.232 7.49013 112.232 9.19873V14.8325V14.8232ZM127.489 13.3178C126.834 14.5185 125.642 15.0264 124.238 15.0264C122.484 15.0264 120.803 14.149 120.803 12.0895C120.803 7.69331 127.452 9.65127 127.452 7.61019C127.452 6.81592 126.63 6.33567 125.568 6.33567C124.442 6.33567 123.666 6.93599 123.666 8.08121H121.108C121.108 5.42134 123.278 4.39618 125.568 4.39618C127.822 4.39618 129.909 5.31975 129.909 7.71178V14.8232H127.489V13.3178ZM124.746 12.9854C126.178 12.9854 127.489 12.1726 127.489 10.6118V10.1592C125.845 10.8242 123.315 10.621 123.315 11.9325C123.315 12.6529 123.924 12.9946 124.746 12.9946V12.9854ZM132.135 14.8232V0H134.592V14.8232H132.135ZM84.9499 6.97293H86.0027V4.58089H85.19C83.9339 4.58089 82.7333 5.19045 82.0683 6.25255L82.0499 6.28025V4.61783H79.6117V14.851H82.0591V9.6328C82.0591 7.91497 83.1304 6.97293 84.9499 6.97293Z" fill="#111C26"/>
<path d="M136.818 14.8234V12.6345H145.001V14.8234H136.818Z" fill="#111C26"/>
</svg>
