<svg width="1706" height="1706" viewBox="0 0 1706 1706" fill="none" xmlns="http://www.w3.org/2000/svg">
<path d="M811.35 1479H1194C1198.21 1479 1200.53 1474.12 1197.88 1470.85L408.881 499.434C405.913 495.78 400 497.879 400 502.587V983.697C400 984.862 400.407 985.991 401.15 986.888L807.5 1477.19C808.45 1478.34 809.861 1479 811.35 1479Z" fill="#242424"/>
<path d="M1306 716.739V1207.79C1306 1212.51 1300.06 1214.6 1297.1 1210.92L514.527 236.13C511.9 232.858 514.23 228 518.426 228H918.081C919.609 228 921.053 228.699 922.001 229.897L1304.92 713.636C1305.62 714.519 1306 715.613 1306 716.739Z" fill="#242424"/>
<path d="M811.35 1479H1194C1198.21 1479 1200.53 1474.12 1197.88 1470.85L408.881 499.434C405.913 495.78 400 497.879 400 502.587V983.697C400 984.862 400.407 985.991 401.15 986.888L807.5 1477.19C808.45 1478.34 809.861 1479 811.35 1479Z" stroke="#242424" stroke-width="5"/>
<path d="M1306 716.739V1207.79C1306 1212.51 1300.06 1214.6 1297.1 1210.92L514.527 236.13C511.9 232.858 514.23 228 518.426 228H918.081C919.609 228 921.053 228.699 922.001 229.897L1304.92 713.636C1305.62 714.519 1306 715.613 1306 716.739Z" stroke="#242424" stroke-width="5"/>
</svg>
